<svg data-name="Layer 2" xmlns="http://www.w3.org/2000/svg" xmlns:xlink="http://www.w3.org/1999/xlink" viewBox="0 0 282.66 92.65"><defs><linearGradient id="a" x1="60.08" y1="16.07" x2="77.04" y2="-20.85" gradientTransform="matrix(1 0 0 -1 0 95.8)" gradientUnits="userSpaceOnUse"><stop offset="0" stop-color="#d9ad35"/><stop offset=".1" stop-color="#f8f18b"/><stop offset=".16" stop-color="#f1e379"/><stop offset=".27" stop-color="#e1c04d"/><stop offset=".33" stop-color="#d9ad35"/><stop offset=".44" stop-color="#d9ad35"/><stop offset=".71" stop-color="#f8f18b"/><stop offset=".83" stop-color="#d9ad35"/><stop offset=".93" stop-color="#d9ad35"/><stop offset="1" stop-color="#f8f18b"/></linearGradient><linearGradient id="b" x1="104.33" y1="28.84" x2="121.29" y2="-8.07" gradientTransform="matrix(1 0 0 -1 0 95.8)" gradientUnits="userSpaceOnUse"><stop offset="0" stop-color="#d9ad35"/><stop offset=".17" stop-color="#f8f18b"/><stop offset=".21" stop-color="#f1e379"/><stop offset=".29" stop-color="#e1c04d"/><stop offset=".33" stop-color="#d9ad35"/><stop offset=".44" stop-color="#d9ad35"/><stop offset=".71" stop-color="#f8f18b"/><stop offset=".83" stop-color="#d9ad35"/><stop offset=".93" stop-color="#d9ad35"/><stop offset="1" stop-color="#f8f18b"/></linearGradient><linearGradient id="c" x1="137.23" y1="33.41" x2="154.19" y2="-3.51" xlink:href="#a"/><linearGradient id="d" x1="178.88" y1="36.35" x2="195.84" y2="-.56" xlink:href="#a"/><linearGradient id="e" x1="217.21" y1="37.42" x2="234.17" y2=".51" xlink:href="#a"/><linearGradient id="f" x1="255.56" y1="38.33" x2="272.52" y2="1.42" xlink:href="#a"/><linearGradient id="g" x1="264.32" y1="52.13" x2="281.28" y2="15.22" xlink:href="#a"/><linearGradient id="h" x1="-2.79" y1="90.51" x2="95.08" y2="21.78" xlink:href="#a"/><linearGradient id="i" x1="-13.5" y1="75.27" x2="84.37" y2="6.54" xlink:href="#a"/><linearGradient id="j" x1="-27.14" y1="55.83" x2="70.72" y2="-12.9" xlink:href="#a"/><linearGradient id="k" x1="61.59" y1="66.82" x2="84.07" y2="23.19" xlink:href="#a"/><linearGradient id="l" x1="117.82" y1="77.26" x2="142.77" y2="28.85" xlink:href="#a"/><linearGradient id="m" x1="169.45" y1="77.26" x2="194.4" y2="28.85" xlink:href="#a"/><linearGradient id="n" x1="246.92" y1="76.04" x2="270.69" y2="29.93" xlink:href="#a"/><linearGradient id="o" x1="212.67" y1="70.54" x2="230.83" y2="35.32" xlink:href="#a"/><linearGradient id="p" x1="118.87" y1="97.11" x2="121.27" y2="66.58" xlink:href="#a"/><linearGradient id="q" x1="127.18" y1="97.77" x2="129.58" y2="67.24" xlink:href="#a"/><linearGradient id="r" x1="136.28" y1="98.48" x2="138.69" y2="67.95" xlink:href="#a"/><linearGradient id="s" x1="147.95" y1="99.4" x2="150.35" y2="68.87" xlink:href="#a"/><linearGradient id="t" x1="160.24" y1="100.37" x2="162.64" y2="69.84" xlink:href="#a"/><linearGradient id="u" x1="168.31" y1="101" x2="170.72" y2="70.48" xlink:href="#a"/><linearGradient id="v" x1="176.61" y1="101.66" x2="179.02" y2="71.13" xlink:href="#a"/><linearGradient id="w" x1="192.48" y1="102.91" x2="194.89" y2="72.38" xlink:href="#a"/><linearGradient id="x" x1="208.87" y1="104.2" x2="211.27" y2="73.67" xlink:href="#a"/><linearGradient id="y" x1="54.36" y1="87.18" x2="168.55" y2="94.87" xlink:href="#a"/><linearGradient id="z" x1="185.64" y1="86.03" x2="292.37" y2="91.32" xlink:href="#a"/></defs><g data-name="Layer 1"><path d="M64.26 74.44h3.26l8.81 17.94h-3.72l-2.03-4.3h-9.47l-2.06 4.3h-3.6l8.81-17.94zm5.03 10.87l-3.46-7.13-3.43 7.13h6.9-.01z" fill="url(#a)"/><path d="M93.52 74.57h3.8l4.78 13.21 4.92-13.26H110l4.92 13.26 4.78-13.21h3.69l-6.95 17.94h-3.06l-4.92-12.8-4.92 12.8h-3.03l-6.98-17.94h-.01z" fill="url(#b)"/><path d="M149.38 74.44h3.26l8.81 17.94h-3.72l-2.03-4.3h-9.47l-2.06 4.3h-3.6l8.81-17.94zm5.03 10.87l-3.46-7.13-3.43 7.13h6.9z" fill="url(#c)"/><path d="M182.75 74.57h8.93c2.52 0 4.49.66 5.78 1.78 1.06.97 1.66 2.29 1.66 3.84v.05c0 2.93-1.97 4.68-4.75 5.4l5.41 6.74h-4.18l-4.92-6.21h-4.41v6.21h-3.52V74.56zm8.67 8.83c2.52 0 4.12-1.17 4.12-2.98v-.05c0-1.91-1.55-2.95-4.15-2.95h-5.12v5.98h5.15z" fill="url(#d)"/><path d="M221.31 74.57h7.47c6.29 0 10.64 3.84 10.64 8.86v.05c0 5.01-4.35 8.91-10.64 8.91h-7.47V74.57zm3.52 2.85v12.11h3.95c4.2 0 6.95-2.52 6.95-6.01v-.05c0-3.49-2.75-6.06-6.95-6.06h-3.95z" fill="url(#e)"/><path d="M259.92 89.79l2.12-2.24c1.92 1.48 3.86 2.32 6.32 2.32 2.17 0 3.55-.92 3.55-2.24v-.05c0-1.27-.8-1.96-4.52-2.72-4.26-.92-6.67-2.04-6.67-5.32v-.05c0-3.05 2.86-5.17 6.84-5.17 2.92 0 5.24.79 7.27 2.24l-1.89 2.37c-1.8-1.2-3.6-1.83-5.44-1.83-2.06 0-3.26.94-3.26 2.11v.05c0 1.37.92 1.99 4.78 2.8 4.24.92 6.41 2.26 6.41 5.22v.05c0 3.33-2.95 5.32-7.15 5.32-3.06 0-5.95-.94-8.35-2.85z" fill="url(#f)"/><path d="M279.82 80.24c-.39 0-.76-.07-1.1-.22s-.65-.35-.91-.61a2.854 2.854 0 01-.83-2.01c0-.39.07-.76.22-1.1s.35-.65.61-.91.56-.46.91-.61c.34-.15.71-.22 1.1-.22s.76.07 1.1.22.64.35.91.61c.26.26.46.56.61.91.15.34.22.71.22 1.1s-.07.76-.22 1.1-.35.65-.61.91-.56.46-.91.61c-.34.15-.71.22-1.1.22zm0-.53c.43 0 .81-.1 1.16-.31s.63-.49.84-.84.31-.74.31-1.16-.1-.81-.31-1.16-.49-.63-.84-.84-.74-.31-1.16-.31-.81.1-1.16.31-.63.49-.84.84-.31.74-.31 1.16.1.81.31 1.16c.21.35.49.63.84.84s.74.31 1.16.31zm-.96-1.04v-2.62h1.26c.13 0 .26.03.38.09s.23.15.31.28c.08.12.12.27.12.45s-.04.33-.13.46-.19.23-.32.3-.26.1-.4.1h-.97v-.36h.85c.12 0 .23-.04.33-.13s.14-.21.14-.37-.05-.28-.14-.35c-.1-.07-.2-.11-.31-.11h-.66v2.26h-.46zm1.53-1.21l.65 1.22h-.51l-.64-1.22h.5z" fill="url(#g)"/><path d="M2.01 39.62h17.78v4.36h3.54v-4.36h18.09c1.1 0 2.01-.83 2.01-1.84V7.23c0-1.01-.9-1.84-2.01-1.84H2.01C.91 5.39 0 6.22 0 7.23v30.55c0 1.01.9 1.84 2.01 1.84zM38.83 8.89c0-.35.31-.64.7-.64s.7.29.7.64V23.1c0 .35-.31.64-.7.64s-.7-.29-.7-.64V8.89zm-9.42.48c0-.61.55-1.11 1.21-1.11s1.21.5 1.21 1.11v13.27c0 .61-.55 1.11-1.21 1.11s-1.21-.5-1.21-1.11V9.37zm-9.26.44c0-.86.77-1.56 1.7-1.56s1.7.7 1.7 1.56v12.37c0 .86-.77 1.56-1.7 1.56s-1.7-.7-1.7-1.56V9.81zm-8.1-.44c0-.61.55-1.11 1.21-1.11s1.21.5 1.21 1.11v13.27c0 .61-.55 1.11-1.21 1.11s-1.21-.5-1.21-1.11V9.37zm-8.39-.48c0-.35.31-.64.7-.64s.7.29.7.64V23.1c0 .35-.31.64-.7.64s-.7-.29-.7-.64V8.89z" fill="url(#h)"/><path d="M18.64 45.23c0 .42.37.76.83.76h4.3c.46 0 .83-.34.83-.76L23.49 44h-3.75l-1.11 1.23z" fill="url(#i)"/><path d="M43.66 60.74h-4.81v-1.06c0-1.85-1.64-3.36-3.66-3.36h-2.41c-2.07-.31-3.04-1.63-3.27-1.99-.29-1.05-1.33-1.84-2.56-1.84h-.44l-.74-4.97c0-.79-.71-1.44-1.57-1.44H19c-.87 0-1.57.65-1.57 1.44l-.74 4.97h.02c-1.23 0-2.27.78-2.56 1.83-.85 1.45-2.78 1.88-3.56 2H8.28c-2.01 0-3.66 1.51-3.66 3.36v1.06H.08v24.49s-.28 6.89 6.57 7.41h29.76c7.88 0 7.24-7.41 7.24-7.41V60.74h.01z" fill="url(#j)"/><path d="M74.95 22.1h7.45l20.13 41h-8.5l-4.64-9.83H67.76l-4.7 9.83h-8.24l20.13-41zm11.5 24.83l-7.91-16.28-7.84 16.28h15.75z" fill="url(#k)"/><path d="M110.36 22.39h7.45l24.51 28.15V22.39h7.91V63.1h-6.73l-25.23-28.96V63.1h-7.91V22.39z" fill="url(#l)"/><path d="M161.99 22.39h7.45l24.51 28.15V22.39h7.91V63.1h-6.73L169.9 34.14V63.1h-7.91V22.39z" fill="url(#m)"/><path d="M241.81 22.39h33.92v6.4h-25.88v10.58h22.94v6.4h-22.94V56.7h26.21v6.4h-34.25V22.39z" fill="url(#n)"/><path fill="url(#o)" d="M218 22.51h7.5v40.72H218z"/><path d="M114.8.22h9.38v2.02h-7.17v3.44h6.36V7.7h-6.36v5.13h-2.21V.23z" fill="url(#p)"/><path d="M126.74.22h2.21v12.6h-2.21V.22z" fill="url(#q)"/><path d="M132.32.22h9.38v2.02h-7.17v3.44h6.36V7.7h-6.36v5.13h-2.21V.23z" fill="url(#r)"/><path d="M147.22 2.28h-4V.23h10.23v2.05h-4v10.55h-2.23V2.28z" fill="url(#s)"/><path d="M159.5 7.86l-5-7.63h2.63l3.51 5.56L164.2.23h2.54l-5.01 7.58v5.02h-2.23V7.86z" fill="url(#t)"/><path d="M166.63 6.24h5.33v2.14h-5.33V6.24z" fill="url(#u)"/><path d="M176.06 2.28h-4V.23h10.23v2.05h-4v10.55h-2.23V2.28z" fill="url(#v)"/><path d="M183.65.22h2.4l3.01 9.34 3.1-9.38h1.87l3.1 9.38 3.01-9.34h2.32l-4.38 12.69h-1.93l-3.1-9.06-3.1 9.06h-1.91L183.65.22z" fill="url(#w)"/><path d="M203.45 6.56v-.04c0-3.55 2.74-6.52 6.61-6.52s6.57 2.94 6.57 6.48v.04c0 3.55-2.74 6.52-6.61 6.52s-6.57-2.93-6.57-6.48zm10.86 0v-.04c0-2.45-1.78-4.48-4.29-4.48s-4.25 2-4.25 4.45v.04c0 2.45 1.78 4.47 4.29 4.47s4.25-1.98 4.25-4.43z" fill="url(#x)"/><path fill="url(#y)" d="M55.03 5.38h56.24v2.61H55.03z"/><path fill="url(#z)" d="M220.09 5.38h55.72v2.61h-55.72z"/></g></svg>